PathFileType	4	(X/Y/Z)	./resultDataOpenSim/trcMotMarkerGrf/sub10/qtm-15-08.trc
DataRate	CameraRate	NumFrames	NumMarkers	Units	OrigDataRate	OrigDataStartFrame	OrigNumFrames
250.000000	250.000000	7	24	m	250.000000	444	507
Frame#	Time	L.Toe.Tip			R.Toe.Tip			L.Ankle.Lat			R.Ankle.Lat			L.Ankle.Med			R.Ankle.Med			L.Heel			R.Heel			L.Knee.Lat			R.Knee.Lat			L.Knee.Med			R.Knee.Med			L.Thigh.Upper			R.Thigh.Upper			L.ASIS			R.ASIS			V.Sacral			L.Acromium			R.Acromium			C7			L.Elbow			R.Elbow			L.Wrist.Lat			R.Wrist.Lat
		X1	Y1	Z1	X2	Y2	Z2	X3	Y3	Z3	X4	Y4	Z4	X5	Y5	Z5	X6	Y6	Z6	X7	Y7	Z7	X8	Y8	Z8	X9	Y9	Z9	X10	Y10	Z10	X11	Y11	Z11	X12	Y12	Z12	X13	Y13	Z13	X14	Y14	Z14	X15	Y15	Z15	X16	Y16	Z16	X17	Y17	Z17	X18	Y18	Z18	X19	Y19	Z19	X20	Y20	Z20	X21	Y21	Z21	X22	Y22	Z22	X23	Y23	Z23	X24	Y24	Z24

444	1.772	1.6425122	0.089138935	-0.20657071	0.82443871	0.038818013	0.039562733	1.5105687	0.069461825	-0.22552704	0.71395089	0.12386252	0.064983832	1.5203921	0.092613892	-0.14325273	0.74631845	0.1293867	-0.018600854	1.4622476	0.02167083	-0.179199	0.65850986	0.12500956	0.017181101	1.3969166	0.44475469	-0.23067323	0.97664415	0.42584971	0.081798312	1.4157185	0.41839265	-0.11289902	1.0138618	0.40983142	-0.040563281	1.2416107	0.79669873	-0.26108798	1.0879483	0.81865897	0.10278376	1.2663885	0.9060066	-0.17334433	1.1876572	0.89900437	0.067539724	1.0316706	0.89852066	-0.12140868	1.1391092	1.3653286	-0.22619421	1.1174726	1.3595854	0.099081833	1.0438178	1.3856377	-0.072867108	0.98292657	1.0634067	-0.26263729	1.1796251	0.99929384	0.13293209	1.011047	0.83342978	-0.33032872	1.413796	0.95794734	0.056127395
445	1.776	1.6469493	0.083622083	-0.20793638	0.82517213	0.038790558	0.03938485	1.5134906	0.069199654	-0.22575917	0.7168626	0.12672538	0.064732532	1.5242568	0.092125789	-0.143295	0.74970606	0.13143671	-0.018712195	1.4633078	0.023233399	-0.17928909	0.66186989	0.1288902	0.016699679	1.4028948	0.4443564	-0.23170343	0.98276632	0.42567206	0.081200992	1.4223964	0.41822222	-0.11390355	1.0203707	0.40899666	-0.040980733	1.2482941	0.79671251	-0.26246489	1.0951664	0.81770681	0.10175477	1.2726275	0.90594211	-0.1746127	1.1945448	0.89848364	0.066274386	1.0379408	0.89823123	-0.12246696	1.1451338	1.3650052	-0.22771217	1.1234404	1.3592485	0.097577916	1.0496867	1.3851975	-0.074469567	0.98972917	1.0625961	-0.2641582	1.1846023	0.99846135	0.12976067	1.0185663	0.83268549	-0.33189302	1.4198402	0.95775408	0.055274556
446	1.78	1.6513173	0.078494095	-0.20828679	0.82594492	0.038727283	0.039191748	1.516491	0.068970541	-0.2258648	0.7199555	0.12965447	0.064452329	1.5280395	0.091708894	-0.14334521	0.75334271	0.13346742	-0.018835585	1.4645055	0.02476464	-0.17947539	0.66549803	0.13280995	0.016151844	1.4087429	0.44414919	-0.23276949	0.98909789	0.42551128	0.080578695	1.4290034	0.41814144	-0.11489758	1.0270266	0.40815743	-0.041416494	1.2549686	0.79683447	-0.2639166	1.1028258	0.81647861	0.10085417	1.2788521	0.90591509	-0.17591308	1.2015758	0.89801933	0.064842476	1.0448145	0.89792089	-0.12384174	1.1511689	1.3647522	-0.22924283	1.1294655	1.3589879	0.096076605	1.0555495	1.3848349	-0.076101084	0.9965908	1.0618217	-0.26571424	1.1896947	0.99776612	0.12666013	1.0262426	0.83197989	-0.33347845	1.425843	0.95747713	0.054544835
447	1.784	1.6551352	0.074023723	-0.20798325	0.82674478	0.038630702	0.038970377	1.5193734	0.068607689	-0.22597492	0.72328133	0.13262834	0.064115188	1.5314892	0.091263324	-0.1434211	0.75725875	0.13545889	-0.018969108	1.465766	0.026102292	-0.17971628	0.66941011	0.13676734	0.015488755	1.4145563	0.4441854	-0.23388842	0.99565255	0.42537015	0.079945058	1.4355894	0.41823741	-0.11584306	1.0338568	0.40732151	-0.041862065	1.2616542	0.79710645	-0.26542419	1.110693	0.81512485	0.099997342	1.2850573	0.9059443	-0.17726256	1.2087353	0.89762582	0.063202535	1.0525419	0.89754611	-0.12568311	1.1571998	1.3645727	-0.2307843	1.1355313	1.3588084	0.094588344	1.0614219	1.384554	-0.077749287	1.0035212	1.0610876	-0.2673105	1.1948975	0.99718522	0.1236364	1.0340713	0.83132355	-0.33508509	1.4317979	0.95710946	0.0539296
448	1.788	1.6582328	0.070157873	-0.20734819	0.82755964	0.038505224	0.038697568	1.5219979	0.068135688	-0.22615914	0.72688033	0.13561251	0.063699232	1.5345048	0.090800754	-0.14354464	0.76148909	0.1373806	-0.019114636	1.4669771	0.027231556	-0.18002298	0.67363118	0.1407703	0.014629916	1.4204382	0.44449211	-0.23504682	1.0023808	0.42524047	0.079304011	1.4421806	0.41856389	-0.11668474	1.0408885	0.40649454	-0.042308353	1.2683588	0.79756066	-0.26697638	1.1184396	0.81387471	0.099062864	1.2912265	0.90607482	-0.17870372	1.2159651	0.89727164	0.061449284	1.0607928	0.89716185	-0.12780032	1.1632071	1.3644657	-0.2323317	1.1416353	1.3587114	0.093113827	1.067342	1.3843682	-0.079406153	1.0105157	1.0603995	-0.26895115	1.2001654	0.99670037	0.12068627	1.0420441	0.83072616	-0.33671133	1.4376877	0.95664649	0.053416016
449	1.792	1.6607085	0.066659475	-0.2065098	0.82837617	0.038352551	0.038353025	1.5243109	0.06766373	-0.22641513	0.73077523	0.13856553	0.063191729	1.5370924	0.090382365	-0.14373893	0.76605769	0.13920881	-0.01928363	1.4680516	0.028202562	-0.18038001	0.67819203	0.14481172	0.01351675	1.4264916	0.4450743	-0.23618935	1.0092132	0.42510849	0.078657426	1.4487738	0.41915346	-0.11740304	1.0481423	0.40567377	-0.04273324	1.2750632	0.79821286	-0.26857515	1.1259739	0.81281605	0.098011237	1.2973596	0.90633853	-0.18024991	1.2231798	0.89688532	0.059770913	1.0688667	0.89689094	-0.12977218	1.1691772	1.3644275	-0.23387776	1.1477895	1.3586952	0.091643597	1.0733518	1.3842905	-0.081063888	1.0175594	1.0597638	-0.27063612	1.2054114	0.99633778	0.11782143	1.0501586	0.83019631	-0.33835405	1.4434898	0.95608376	0.052995455
450	1.796	1.6627236	0.063298834	-0.2054706	0.82919181	0.038179904	0.037945912	1.5263321	0.067263958	-0.22670996	0.73498044	0.14144872	0.062578832	1.5392856	0.090037289	-0.14399331	0.77096855	0.14094224	-0.019497547	1.4689602	0.029061667	-0.18075651	0.68311505	0.14884523	0.012188593	1.4327827	0.4459138	-0.23725498	1.0161234	0.42496385	0.078011665	1.4553441	0.42002257	-0.11802585	1.0556267	0.4048477	-0.043105526	1.281735	0.79906625	-0.27022556	1.1334558	0.81187305	0.096883603	1.3034748	0.90673271	-0.1818442	1.2303192	0.89641198	0.05828008	1.0763581	0.89681209	-0.13134025	1.1751105	1.3644565	-0.2354165	1.1540067	1.3587538	0.090169097	1.07947	1.3843238	-0.08270133	1.0246381	1.0591869	-0.27235856	1.2104759	0.99615956	0.11506182	1.0584191	0.82973991	-0.34000072	1.4491876	0.95541999	0.052667918
